<svg width="327" height="76" viewBox="0 0 327 76" fill="none" xmlns="http://www.w3.org/2000/svg">
<path d="M269.719 48.9844V6.75001H293.672V52.8281C293.672 55.6094 294.031 57.5469 294.75 58.6406C295.469 59.7031 296.562 60.2344 298.031 60.2344C299.5 60.2344 300.594 59.7031 301.312 58.6406C302.031 57.5469 302.391 55.6094 302.391 52.8281V6.75001H326.438V48.9844C326.438 58.1719 323.969 64.9688 319.031 69.375C314.094 73.75 307.219 75.9375 298.406 75.9375C289.219 75.9375 282.141 73.75 277.172 69.375C272.203 64.9688 269.719 58.1719 269.719 48.9844Z" fill="#86089F"/>
<path d="M0.337372 16.2795L0.375244 0.342072L55.7345 0.473621L55.6966 16.4111L38.3529 16.3699L38.2286 68.6822L17.6505 68.6333L17.7748 16.321L0.337372 16.2795Z" fill="white"/>
<path d="M51.9659 47.7148L51.9695 46.2148C51.9856 39.4336 54.3265 34.0641 58.9922 30.1064C63.6891 26.1488 70.0219 24.1795 77.9907 24.1985C85.7406 24.2169 91.7047 26.1842 95.8829 30.1004C100.092 33.9854 102.189 39.2404 102.174 45.8654L102.164 49.7091L62.2271 49.6142L62.2428 43.0048L83.3365 43.055L83.3374 42.68C83.3412 41.0862 82.8911 39.7883 81.9872 38.7861C81.0834 37.7527 79.6784 37.2337 77.7722 37.2292C75.7097 37.2243 74.1455 37.9394 73.0796 39.3743C72.0137 40.8093 71.4781 42.6362 71.4728 44.8549L71.4656 47.9018C71.4585 50.8705 72.0313 53.1062 73.184 54.609C74.368 56.0806 76.0538 56.8189 78.2412 56.8241C79.9912 56.8283 81.4139 56.4879 82.5093 55.803C83.6048 55.0869 84.4508 54.1201 85.0475 52.9028L101.868 56.3178C100.357 60.783 97.7394 64.183 94.0151 66.5179C90.3222 68.8216 85.1007 69.9655 78.3507 69.9494C69.9757 69.9295 63.4804 67.9453 58.8648 63.9969C54.2491 60.0484 51.9495 54.621 51.9659 47.7148Z" fill="white"/>
<path d="M105.242 56.3727C105.253 52.0289 107.011 48.5644 110.517 45.9789C114.055 43.3623 118.776 42.061 124.683 42.0751L135.933 42.1018L135.938 39.9456C135.942 38.2893 135.57 37.0384 134.822 36.1929C134.105 35.3162 132.903 34.8758 131.215 34.8718C129.59 34.868 128.34 35.24 127.463 35.9879C126.617 36.7359 126.193 37.7974 126.19 39.1724L126.187 40.1099L108.469 39.974L108.471 38.9897C108.482 34.5522 110.646 31.0417 114.965 28.4582C119.315 25.8435 125.256 24.5451 132.787 24.563C140.568 24.5815 146.299 25.892 149.981 28.4945C153.693 31.0659 155.543 35.1796 155.529 40.8359L155.485 59.4452C155.481 61.1952 155.633 62.8362 155.942 64.3682C156.251 65.8689 156.732 67.1982 157.386 68.356L157.384 68.9654L137.931 68.9191C137.433 68.1367 137.045 67.2764 136.766 66.3382C136.518 65.3689 136.349 64.3372 136.257 63.2433C135.16 64.8344 133.266 66.283 130.575 67.5892C127.916 68.8641 124.586 69.4968 120.586 69.4873C115.774 69.4759 112.011 68.3732 109.297 66.1792C106.584 63.954 105.232 60.6852 105.242 56.3727ZM124.558 54.9186C124.555 56.4186 124.958 57.5445 125.769 58.2965C126.611 59.0485 127.798 59.4263 129.329 59.4299C130.985 59.4339 132.487 58.8124 133.833 57.5656C135.211 56.3189 135.902 54.9143 135.906 53.3518L135.913 50.4924L131.272 50.4814C128.991 50.476 127.303 50.8157 126.207 51.5006C125.112 52.1855 124.562 53.3248 124.558 54.9186Z" fill="white"/>
<path d="M160.528 48.0196L160.532 46.4728C160.548 39.5665 162.842 34.1657 167.414 30.2703C171.986 26.3437 178.147 24.3896 185.897 24.408C193.709 24.4266 199.737 25.9878 203.979 29.0916C208.253 32.1955 210.539 36.8572 210.837 43.0767L210.881 44.2018L191.99 44.1569L191.992 43.5944C191.996 41.8132 191.546 40.4058 190.642 39.3724C189.739 38.339 188.38 37.8202 186.568 37.8159C184.568 37.8111 183.019 38.4949 181.922 39.8673C180.825 41.2397 180.274 43.2228 180.268 45.8166L180.261 48.7228C180.255 51.3478 180.781 53.3803 181.84 54.8203C182.899 56.2603 184.444 56.9828 186.476 56.9876C188.351 56.992 189.742 56.4953 190.651 55.4975C191.56 54.4997 192.031 53.1883 192.067 51.5634L192.068 50.9071L210.912 50.9519L210.862 52.1236C210.692 58.1233 208.462 62.6492 204.174 65.7015C199.885 68.7226 193.803 70.2238 185.929 70.2051C178.179 70.1867 171.996 68.2032 167.38 64.2547C162.796 60.2751 160.512 54.8634 160.528 48.0196Z" fill="white"/>
<path d="M215.697 69.1039L215.859 0.713497L235.453 0.760057L235.379 31.7443C236.353 29.7467 238.044 28.0944 240.454 26.7876C242.894 25.4809 246.005 24.8321 249.786 24.8411C254.318 24.8518 258.002 26.1106 260.84 28.6173C263.678 31.0928 265.09 35.1118 265.077 40.6743L265.009 69.2211L245.369 69.1744L245.428 44.3776C245.432 42.4714 245.029 41.0954 244.219 40.2497C243.439 39.4041 242.347 38.9797 240.94 38.9763C239.659 38.9733 238.533 39.3769 237.562 40.1871C236.623 40.9661 235.886 41.9956 235.352 43.2756L235.291 69.1505L215.697 69.1039Z" fill="white"/>
</svg>
